<svg xmlns="http://www.w3.org/2000/svg" viewBox="0 0 500 500"><g id="freepik--Floor--inject-35"><ellipse id="freepik--floor--inject-35" cx="253.74" cy="341.76" rx="235.29" ry="135.85" style="fill:#f5f5f5"></ellipse></g><g id="freepik--Shadow--inject-35"><ellipse id="freepik--shadow--inject-35" cx="408.88" cy="369.84" rx="66.75" ry="38.54" style="fill:#e0e0e0"></ellipse><polygon id="freepik--shadow--inject-35" points="239.95 390.63 164.65 347.14 250.72 297.45 326.03 340.93 239.95 390.63" style="fill:#e0e0e0"></polygon><polygon id="freepik--shadow--inject-35" points="34.91 377.18 132.03 433.25 213.49 386.23 116.37 330.16 34.91 377.18" style="fill:#e0e0e0"></polygon></g><g id="freepik--Shelf--inject-35"><g id="freepik--shelf--inject-35"><g id="freepik--shelf--inject-35"><path d="M178.52,113.63v-5.52h0a1.87,1.87,0,0,0-1.1-1.47L144.09,87.52a5.7,5.7,0,0,0-5.12,0l-95.79,55a1.87,1.87,0,0,0-1.1,1.47h0v5.52h0a1.86,1.86,0,0,0,1.1,1.47L76.5,170.07a5.7,5.7,0,0,0,5.12,0l95.79-55a1.86,1.86,0,0,0,1.1-1.47Z" style="fill:#f0f0f0"></path><path d="M43.18,145.43,76.5,164.55a5.64,5.64,0,0,0,5.12,0l95.79-55c1.41-.81,1.41-2.12,0-2.94L144.09,87.52a5.7,5.7,0,0,0-5.12,0l-95.79,55C41.77,143.31,41.77,144.62,43.18,145.43Z" style="fill:#fafafa"></path><path d="M79.06,165.17v5.51a5.35,5.35,0,0,1-2.56-.61L43.18,151a1.86,1.86,0,0,1-1.1-1.47h0V144h0a1.43,1.43,0,0,1,.21-.63c-.39.71-.1,1.53.89,2.1L76.5,164.56A5.21,5.21,0,0,0,79.06,165.17Z" style="fill:#e0e0e0"></path></g><g id="freepik--Book--inject-35"><polygon points="96.96 118.53 125.19 134.62 171.82 107.86 143.6 91.76 96.96 118.53" style="fill:#e0e0e0"></polygon><path d="M125.51,133.4,98.28,117.77a11.27,11.27,0,0,0-.15-7.06l27.06,15.46S125.71,127.88,125.51,133.4Z" style="fill:#fff"></path><path d="M123.8,124a5.75,5.75,0,0,1,2.62,4.5v5.26c0,1.66-1.18,2.33-2.62,1.51L97,119.83v-1.3l26.48,15.1c.87.5,1.57.09,1.57-.9l0-4.88a3.44,3.44,0,0,0-1.57-2.7L97,110v-1.48Z" style="fill:#ebebeb"></path><path d="M97,108.57,143.6,81.8l26.83,15.4a5.74,5.74,0,0,1,2.62,4.51V107a1.8,1.8,0,0,1-.77,1.68l-46.63,26.77a1.84,1.84,0,0,0,.76-1.68v-5.27a5.71,5.71,0,0,0-2.62-4.5Z" style="fill:#fafafa"></path><path d="M125.65,125.91a5.2,5.2,0,0,1,.77,2.56v5.27a1.84,1.84,0,0,1-.76,1.68l46.63-26.77a1.8,1.8,0,0,0,.77-1.68v-5.26a5.2,5.2,0,0,0-.77-2.56Z" style="fill:#f0f0f0"></path></g><g id="freepik--book--inject-35"><polygon points="68.26 78.48 67.99 82.04 99.51 98.95 100.22 96.87 68.26 78.48" style="fill:#ebebeb"></polygon><polygon points="99.8 97.7 69.27 80.08 63.96 83.14 95.09 101.35 99.8 97.7" style="fill:#fff"></polygon><path d="M89.36,99.46l-3,35.38a2.5,2.5,0,0,0,1.13,2l17.71,10.25a2.1,2.1,0,0,0,.92.26l-11-44.81a2.28,2.28,0,0,1-.92-.25l-1.27-.74Z" style="fill:#e0e0e0"></path><path d="M96.44,102.25l3.16-2.71,2.31-2c.24-.38.52-.66.37-1l10.86,44.48,0,0c.15.31.19,1-.24,1.26l-5.47,4.68a2.35,2.35,0,0,1-1.35.26l-11-44.81A2.41,2.41,0,0,0,96.44,102.25Z" style="fill:#f0f0f0"></path><path d="M101.92,96.25c.62.36.47.76,0,1.3l-5.48,4.69a2.44,2.44,0,0,1-2.26,0l-4.82-2.78c-.63-.36-.74-.88-.25-1.16a2.28,2.28,0,0,1,2,.14l3.8,2.2a.83.83,0,0,0,.75,0l4-3.48c.21-.12.21-.31,0-.43L68.26,78.48l1.5-.87Z" style="fill:#fafafa"></path></g><g id="freepik--book--inject-35"><polygon points="59.16 80.19 89.19 97.53 89.19 154.67 59.16 137.32 59.16 80.19" style="fill:#ebebeb"></polygon><path d="M88.22,98.48,59.16,81.8a12.28,12.28,0,0,1-6.65,3.64l28.82,16.61S83.19,101.61,88.22,98.48Z" style="fill:#fff"></path><path d="M78.54,102a6.23,6.23,0,0,0,5.58,0L89,99.14c1.54-.89,1.54-2.32,0-3.21L60.37,79.49l-1.21.7L87.33,96.46a1,1,0,0,1,0,1.92L82.78,101a3.73,3.73,0,0,1-3.35,0L51.27,84.72l-1.38.79Z" style="fill:#fafafa"></path><path d="M49.9,85.51v57.13l28.64,16.44a6.23,6.23,0,0,0,5.58,0l4.9-2.81a1.94,1.94,0,0,0,1.15-1.61V97.53A1.92,1.92,0,0,1,89,99.13L84.12,102a6.23,6.23,0,0,1-5.58,0Z" style="fill:#ebebeb"></path><path d="M81.33,102.61a5.75,5.75,0,0,0,2.79-.66L89,99.13a1.92,1.92,0,0,0,1.15-1.6v57.13A1.94,1.94,0,0,1,89,156.27l-4.9,2.81a5.75,5.75,0,0,1-2.79.66Z" style="fill:#f0f0f0"></path></g></g></g><g id="freepik--Plants--inject-35"><g id="freepik--plants--inject-35"><path d="M322.57,310c-.15-2.53-.49-5.56-.9-9.08-1.53-13.36-3.62-31.66,1.92-49.19,3.37-10.67,11.49-23.32,24.17-26.83,2.82-.78,9.64-1.93,12.26,4.12a8.52,8.52,0,0,1,.65,2.75c.27,3.84-1.46,7.23-3.38,10.32-2.21,3.59-4.77,7-7.25,10.32-2.34,3.14-4.77,6.38-6.89,9.74a84.16,84.16,0,0,0-6,11.43l-.81-.35a84.82,84.82,0,0,1,6-11.55c2.13-3.39,4.57-6.65,6.93-9.8,2.46-3.3,5-6.7,7.2-10.25,1.84-3,3.5-6.21,3.25-9.8a7.58,7.58,0,0,0-.58-2.46c-2.34-5.41-8.62-4.33-11.21-3.62-12.34,3.42-20.27,15.8-23.57,26.24-5.48,17.36-3.4,35.55-1.88,48.83.4,3.53.75,6.58.9,9.13Z" style="fill:#FF725E"></path><path d="M323.47,324.54a.71.71,0,0,1-.2,0,1.25,1.25,0,0,1-.89-.69,2.3,2.3,0,0,1,0-1.53,9.93,9.93,0,0,0,0-2.89c0-.54-.09-1.11-.09-1.62V311.6a75.44,75.44,0,0,1,9.57-31.73c4.88-8.49,10.28-14.14,17-17.8a32.15,32.15,0,0,1,11.7-3.75,14.68,14.68,0,0,1,10.22,2.7c3.05,2.41,4.42,6.54,3.27,9.81-.81,2.29-2.66,4-4.55,5.55-3.37,2.75-7.05,5.21-10.6,7.59-2.95,2-6,4-8.85,6.2a84.23,84.23,0,0,0-21.53,24.65c-.9,1.55-1.75,3.15-2.53,4.75l-.32.63a14.79,14.79,0,0,0-.82,1.77c-.05.13-.1.4-.17.71a3.73,3.73,0,0,1-.53,1.61A1,1,0,0,1,323.47,324.54ZM362,259.15c-.45,0-.9,0-1.36.06a30.88,30.88,0,0,0-11.35,3.64c-6.56,3.57-11.85,9.12-16.65,17.46a74.64,74.64,0,0,0-9.45,31.33v6.15c0,.48,0,1,.09,1.55a10.41,10.41,0,0,1,0,3.16,1.59,1.59,0,0,0,0,1,.38.38,0,0,0,.26.2,4.06,4.06,0,0,0,.36-1.17,6.12,6.12,0,0,1,.2-.82,15.11,15.11,0,0,1,.86-1.87l.31-.62c.8-1.62,1.66-3.23,2.56-4.8a87.73,87.73,0,0,1,6.21-9.32,84.39,84.39,0,0,1,15.55-15.59c2.88-2.2,5.94-4.25,8.9-6.23,3.54-2.37,7.19-4.82,10.54-7.54,1.78-1.45,3.53-3.08,4.27-5.16,1-2.93-.23-6.64-3-8.83A13.15,13.15,0,0,0,362,259.15Z" style="fill:#FF725E"></path><path d="M322.72,316l-.11,0a.43.43,0,0,1-.32-.53c8.25-32.9,31.06-47.58,43.24-51.07a.44.44,0,0,1,.54.3.45.45,0,0,1-.3.55c-12,3.43-34.47,17.92-42.62,50.43A.45.45,0,0,1,322.72,316Z" style="fill:#FF725E"></path><path d="M322.67,289h0a.45.45,0,0,1-.41-.48c2.63-35.53,25.87-55,28.51-57.09a.43.43,0,0,1,.62.07.44.44,0,0,1-.07.62c-2.61,2.07-25.58,21.31-28.17,56.47A.46.46,0,0,1,322.67,289Z" style="fill:#FF725E"></path></g></g><g id="freepik--Bookshelf--inject-35"><g id="freepik--bookshelf--inject-35"><path d="M319.9,165.09,264.29,133a3,3,0,0,0-3-.29l-4,2.31a3,3,0,0,0-1.27,2.77V290a9.45,9.45,0,0,0,4.28,7.4l55.6,32.05a3,3,0,0,0,3,.3l4-2.32a3,3,0,0,0,1.25-2.76V172.49A9.44,9.44,0,0,0,319.9,165.09Z" style="fill:#263238"></path><path d="M268,292.61l-4,2.31v12.66a2.36,2.36,0,0,0,1.07,1.85l1.87,1.08a2.37,2.37,0,0,0,2.14,0l1.87-1.08a3.8,3.8,0,0,0,1.47-1.79l3.61-10.4Z" style="fill:#263238"></path><path d="M264,307.58a2.36,2.36,0,0,0,1.07,1.85l1.87,1.08a1,1,0,0,0,1.47-.55L272,299.55l-8-4.63Z" style="fill:#37474f"></path><path d="M308.12,315.7l-4,2.32v12.65a2.37,2.37,0,0,0,1.06,1.86l1.88,1.08a2.35,2.35,0,0,0,2.13,0l1.88-1.08a3.8,3.8,0,0,0,1.47-1.79l3.6-10.41Z" style="fill:#263238"></path><path d="M304.12,330.67a2.37,2.37,0,0,0,1.06,1.86l1.88,1.08a1,1,0,0,0,1.47-.55l3.61-10.41-8-4.63Z" style="fill:#37474f"></path><path d="M260.56,135.43l55.6,32a9.47,9.47,0,0,1,4.28,7.41V327.05a2.61,2.61,0,0,1-4.28,2.47l-55.6-32.06a9.44,9.44,0,0,1-4.27-7.4V137.89a2.6,2.6,0,0,1,4.27-2.46Z" style="fill:#37474f"></path><g id="freepik--Bottom--inject-35"><polygon points="179.82 343.48 239.96 378.2 324.16 329.59 320.15 327.27 260.01 292.55 179.82 338.85 179.82 343.48" style="fill:#455a64"></polygon><polygon points="239.96 378.2 239.96 373.57 324.16 324.96 324.16 329.59 239.96 378.2" style="fill:#263238"></polygon></g><path d="M240.34,371.46l-.61-.41C250.4,354.9,250.33,327,249.46,320c-.07-.47-.12-.76-.13-.87l.73-.12c0,.22.08.48.12.79.78,4.95,5.19,31.84,10.41,40l-.62.4c-4.13-6.41-7.66-23.71-9.43-33.69C250.65,337.84,249,358.43,240.34,371.46Z" style="fill:#fafafa"></path><path d="M275.46,346.8c-.91-.27-22.17-6.71-24.13-16.09l.73-.15c1.86,8.95,23.39,15.47,23.61,15.54Z" style="fill:#fafafa"></path><path d="M254,343l-.54-2.29a1.89,1.89,0,0,0-1.76-1.56,1.74,1.74,0,0,0-1.78.89l-.69-.29a2.48,2.48,0,0,1,2.53-1.34,2.6,2.6,0,0,1,1.89,1A3.68,3.68,0,0,1,255,337a1.85,1.85,0,0,1,1.82.06l-.33.66a1.16,1.16,0,0,0-1.13-.07c-.85.48-1.18,2.33-1.23,3Z" style="fill:#fafafa"></path><path d="M256.09,350.63l-.66-2.08c-.75-2.35-2-3.7-3.48-3.79a3.18,3.18,0,0,0-2.95,1.85l-.67-.32A3.89,3.89,0,0,1,252,344c.89.05,2.42.53,3.56,2.85.25-1.83,1-4.77,2.93-6a4.6,4.6,0,0,1,4.51.05l-.31.67a3.89,3.89,0,0,0-3.8-.09c-2.57,1.6-2.74,6.89-2.74,6.95Z" style="fill:#fafafa"></path><path d="M247.06,355.71l-.66-.34c1.48-2.85,4.73-4.9,7.55-4.76a4,4,0,0,1,3.1,1.53,10.85,10.85,0,0,1,4.74-7.08,9.21,9.21,0,0,1,9-.67l-.29.67a8.53,8.53,0,0,0-8.28.62,9.91,9.91,0,0,0-4.5,7.68l0,1.89-.7-1.76a3.28,3.28,0,0,0-3.06-2.14C251.37,351.22,248.42,353.1,247.06,355.71Z" style="fill:#fafafa"></path><path d="M243,366.75l-.65-.36c.9-1.64,5.69-9.88,11.36-11.37a5.89,5.89,0,0,1,4.78.69l-.38.63a5.22,5.22,0,0,0-4.21-.61C249.74,356.83,245.44,362.35,243,366.75Z" style="fill:#fafafa"></path><polygon points="316.14 278.66 316.14 283.29 239.96 327.27 179.82 292.55 179.82 287.92 256 243.94 316.14 278.66" style="fill:#263238"></polygon><polygon points="316.14 278.66 239.96 322.64 179.82 287.92 256 243.94 316.14 278.66" style="fill:#455a64"></polygon><polygon points="316.14 227.74 316.14 232.36 239.96 276.35 179.82 241.62 179.82 237 256 193.01 316.14 227.74" style="fill:#263238"></polygon><polygon points="316.14 227.74 239.96 271.72 179.82 237 256 193.01 316.14 227.74" style="fill:#455a64"></polygon><g id="freepik--Side--inject-35"><path d="M239.7,211.33l-55.6-32.05a3,3,0,0,0-3-.3c-.72.41-3.28,1.9-4,2.31a3,3,0,0,0-1.26,2.77V336.23a9.45,9.45,0,0,0,4.28,7.4l55.6,32.06a3,3,0,0,0,3,.3c.72-.42,3.3-1.9,4-2.33A3,3,0,0,0,244,370.9V218.74A9.45,9.45,0,0,0,239.7,211.33Z" style="fill:#263238"></path><polygon points="239.96 234.69 243.98 232.37 243.98 218.47 239.95 220.79 239.96 234.69" style="opacity:0.2"></polygon><polygon points="320.16 188.39 324.18 186.08 324.18 172.18 320.15 174.5 320.16 188.39" style="opacity:0.2"></polygon><path d="M187.84,338.85l-4,2.31v12.66a2.36,2.36,0,0,0,1.07,1.85l1.87,1.08a2.37,2.37,0,0,0,2.14,0l1.87-1.08a3.82,3.82,0,0,0,1.47-1.78l3.61-10.41Z" style="fill:#263238"></path><path d="M183.83,353.82a2.36,2.36,0,0,0,1.07,1.85l1.87,1.08a1,1,0,0,0,1.47-.55l3.61-10.41-8-4.63Z" style="fill:#37474f"></path><path d="M227.93,362l-4,2.31v12.66a2.35,2.35,0,0,0,1.06,1.85l1.88,1.08a2.35,2.35,0,0,0,2.13,0l1.88-1.08a3.88,3.88,0,0,0,1.47-1.78l3.6-10.41Z" style="fill:#263238"></path><path d="M223.93,376.92a2.35,2.35,0,0,0,1.06,1.85l1.88,1.08a1,1,0,0,0,1.47-.55l3.6-10.41-8-4.63Z" style="fill:#37474f"></path><path d="M180.08,181.6l55.61,32.05a9.46,9.46,0,0,1,4.27,7.41V378.2s-3.09-1.83-4.27-2.51l-55.6-32.06a9.45,9.45,0,0,1-4.28-7.4V184.06a2.6,2.6,0,0,1,4.27-2.46Z" style="fill:#37474f"></path><path d="M235.69,213.65,180.08,181.6a2.6,2.6,0,0,0-4.27,2.46v13.59l64.15,37V221.06A9.46,9.46,0,0,0,235.69,213.65Z" style="opacity:0.2"></path></g><path d="M312.13,228.11a.38.38,0,0,1-.37-.37V182.08l-43.55,25.14a.35.35,0,0,1-.5-.13.37.37,0,0,1,.13-.51L312,181.12a.35.35,0,0,1,.37,0,.37.37,0,0,1,.18.32v46.3A.37.37,0,0,1,312.13,228.11Z" style="fill:#fafafa"></path><path d="M304.11,216.53H304a.37.37,0,0,1-.28-.44l7.46-32.31-14.8,25.63a.36.36,0,0,1-.5.14.37.37,0,0,1-.14-.51l16-27.78a.38.38,0,0,1,.46-.16.37.37,0,0,1,.22.43l-8,34.73A.36.36,0,0,1,304.11,216.53Z" style="fill:#fafafa"></path><path d="M288.08,205a.36.36,0,0,1-.27-.12.37.37,0,0,1,0-.52l24.06-23.15a.37.37,0,0,1,.52,0,.38.38,0,0,1,0,.53l-24.06,23.14A.36.36,0,0,1,288.08,205Z" style="fill:#fafafa"></path><path d="M312.13,220.72h0a.38.38,0,0,1-.37-.37c0-6.06-6.76-6.47-7.05-6.48a.39.39,0,0,1-.28-.15.36.36,0,0,1-.06-.3,7.19,7.19,0,0,0-2.31-6.81,3.45,3.45,0,0,0-2.66-1,1.85,1.85,0,0,0-1.27.86.37.37,0,0,1-.43.17.37.37,0,0,1-.26-.38c0-.23.41-5.62-4.33-6.15a.38.38,0,0,1-.29-.2.37.37,0,0,1,0-.34s2.1-3.93,1.29-5.86a1.56,1.56,0,0,0-1.07-.92.36.36,0,0,1-.25-.46.38.38,0,0,1,.46-.25,2.27,2.27,0,0,1,1.54,1.35c.77,1.83-.53,4.86-1.09,6,3.68.71,4.36,4.18,4.46,5.9a2.82,2.82,0,0,1,1.1-.47,4,4,0,0,1,3.27,1.21,8,8,0,0,1,2.63,7.12c1.62.21,7.34,1.34,7.33,7.18A.37.37,0,0,1,312.13,220.72Z" style="fill:#fafafa"></path><path d="M312.13,210.74a.37.37,0,0,1-.37-.34c-.16-2.12-1.39-4.86-2.94-5.54a1.73,1.73,0,0,0-1.87.3.38.38,0,0,1-.41,0,.37.37,0,0,1-.19-.36s.33-3.75-1.36-5.3a3,3,0,0,0-2.68-.6.36.36,0,0,1-.35-.12.38.38,0,0,1-.07-.37c.34-.93,1-3.54.11-4.47-.42-.43-1.19-.47-2.3-.11a.37.37,0,0,1-.42-.14.38.38,0,0,1,0-.44c.62-.78,2.15-3.06,1.77-4.15a.92.92,0,0,0-.74-.56.37.37,0,0,1-.27-.45.35.35,0,0,1,.44-.27,1.62,1.62,0,0,1,1.27,1c.41,1.19-.59,3-1.29,4a2.28,2.28,0,0,1,2.06.53c1.1,1.14.57,3.55.24,4.68a3.48,3.48,0,0,1,2.72.85c1.49,1.36,1.65,4,1.63,5.21a2.35,2.35,0,0,1,2,0c1.89.83,3.2,3.78,3.39,6.17a.36.36,0,0,1-.34.39Z" style="fill:#fafafa"></path><g id="freepik--Top--inject-35"><path d="M333.67,165.24a3,3,0,0,0-1.76-2.47L272.3,128.35a9.47,9.47,0,0,0-8.55,0l-91.68,52.94a3,3,0,0,0-1.76,2.47v4.63a3,3,0,0,0,1.76,2.47l59.61,34.41a9.41,9.41,0,0,0,8.55,0l91.68-52.93a3,3,0,0,0,1.76-2.47Z" style="fill:#37474f"></path><path d="M231.68,220.64l-59.61-34.41c-2.36-1.37-2.36-3.58,0-4.94l91.68-52.94a9.47,9.47,0,0,1,8.55,0l59.61,34.42c2.37,1.37,2.37,3.57,0,4.94l-91.68,52.93A9.41,9.41,0,0,1,231.68,220.64Z" style="fill:#455a64"></path></g><g id="freepik--Shadows--inject-35"><polygon points="320.15 179.12 292.09 213.85 243.98 241.63 243.97 223.11 320.15 179.12" style="opacity:0.1"></polygon><polygon points="316.14 232.36 292.09 264.77 243.98 292.56 243.98 274.03 316.14 232.36" style="opacity:0.1"></polygon><polygon points="316.14 283.29 292.09 315.7 243.98 343.49 243.98 324.96 316.14 283.29" style="opacity:0.1"></polygon></g></g></g></svg>